<svg width="29" height="30" viewBox="0 0 29 30" fill="none" xmlns="http://www.w3.org/2000/svg">
<path d="M0.65045 6.12954C2.81957 0.276254 9.46249 -0.958428 12.6258 0.642084V5.90089C10.3663 3.15717 3.36186 4.98632 4.71754 11.1597C6.88666 15.9155 10.8935 14.818 12.6258 13.6748V18.705C4.9435 21.4487 -2.23039 13.9034 0.65045 6.12954Z" fill="url(#paint0_linear_930_29742)"/>
<path d="M13.0777 27.8507V6.58683C15.0661 7.86723 16.6176 9.5592 17.1448 10.2451V29.9085C15.1564 29.5427 13.6049 28.3842 13.0777 27.8507Z" fill="url(#paint1_linear_930_29742)"/>
<path d="M17.5967 15.7326V10.9311C18.5758 10.7024 21.0763 10.5195 23.2455 11.617C25.9569 12.7602 30.7018 17.3331 27.9904 24.1924C25.8213 29.6799 20.1575 30.2896 17.5967 29.9085V25.107C19.1784 26.0216 25.279 24.6497 24.1493 19.3909C23.2455 15.1838 19.4043 15.1991 17.5967 15.7326Z" fill="url(#paint2_linear_930_29742)"/>
<path d="M13.0777 6.12954V0.870728C14.8853 1.41947 16.5423 3.23338 17.1448 4.07174V9.78784C17.1448 9.60493 15.1113 7.5014 13.0777 6.12954Z" fill="#2161F9"/>
<defs>
<linearGradient id="paint0_linear_930_29742" x1="5.62136" y1="1.09937" x2="21.2699" y2="29.7535" gradientUnits="userSpaceOnUse">
<stop stop-color="#07C160"/>
<stop offset="1" stop-color="#225DFF"/>
</linearGradient>
<linearGradient id="paint1_linear_930_29742" x1="5.62136" y1="1.09937" x2="21.2699" y2="29.7535" gradientUnits="userSpaceOnUse">
<stop stop-color="#07C160"/>
<stop offset="1" stop-color="#225DFF"/>
</linearGradient>
<linearGradient id="paint2_linear_930_29742" x1="5.62136" y1="1.09937" x2="21.2699" y2="29.7535" gradientUnits="userSpaceOnUse">
<stop stop-color="#07C160"/>
<stop offset="1" stop-color="#225DFF"/>
</linearGradient>
</defs>
</svg>
