<svg width="125" height="16" viewBox="0 0 125 16" fill="none" xmlns="http://www.w3.org/2000/svg">
<path d="M124.707 8.70711C125.098 8.31658 125.098 7.68342 124.707 7.29289L118.343 0.928932C117.953 0.538408 117.319 0.538408 116.929 0.928932C116.538 1.31946 116.538 1.95262 116.929 2.34315L122.586 8L116.929 13.6569C116.538 14.0474 116.538 14.6805 116.929 15.0711C117.319 15.4616 117.953 15.4616 118.343 15.0711L124.707 8.70711ZM0 9H1.47619V7H0V9ZM4.42857 9H7.38095V7H4.42857V9ZM10.3333 9H13.2857V7H10.3333V9ZM16.2381 9H19.1905V7H16.2381V9ZM22.1429 9H25.0952V7H22.1429V9ZM28.0476 9H31V7H28.0476V9ZM33.9524 9H36.9048V7H33.9524V9ZM39.8571 9H42.8095V7H39.8571V9ZM45.7619 9H48.7143V7H45.7619V9ZM51.6667 9H54.619V7H51.6667V9ZM57.5714 9H60.5238V7H57.5714V9ZM63.4762 9H66.4286V7H63.4762V9ZM69.381 9H72.3333V7H69.381V9ZM75.2857 9H78.2381V7H75.2857V9ZM81.1905 9H84.1428V7H81.1905V9ZM87.0952 9H90.0476V7H87.0952V9ZM93 9H95.9523V7H93V9ZM98.9047 9H101.857V7H98.9047V9ZM104.809 9H107.762V7H104.809V9ZM110.714 9H113.667V7H110.714V9ZM116.619 9H119.571V7H116.619V9ZM122.524 9H124V7H122.524V9Z" fill="url(#paint0_linear_973_55753)"/>
<defs>
<linearGradient id="paint0_linear_973_55753" x1="0" y1="8.5" x2="124" y2="8.5" gradientUnits="userSpaceOnUse">
<stop stop-color="white"/>
<stop offset="1" stop-color="#07C160"/>
</linearGradient>
</defs>
</svg>
